<mxfile host="app.diagrams.net" agent="Mozilla/5.0 (Windows NT 10.0; Win64; x64; rv:144.0) Gecko/20100101 Firefox/144.0" version="28.2.7">
  <diagram name="Страница — 1" id="miVEtzbdAm4gwGJFyoL6">
    <mxGraphModel dx="1678" dy="926" grid="1" gridSize="10" guides="1" tooltips="1" connect="1" arrows="1" fold="1" page="1" pageScale="1" pageWidth="827" pageHeight="1169" background="none" math="0" shadow="0">
      <root>
        <mxCell id="0" />
        <mxCell id="1" parent="0" />
        <mxCell id="joQVcLJBg0Bp2sJsYOWd-1" value="" style="endArrow=none;html=1;rounded=0;" edge="1" parent="1" target="joQVcLJBg0Bp2sJsYOWd-2">
          <mxGeometry width="50" height="50" relative="1" as="geometry">
            <mxPoint x="370" y="500" as="sourcePoint" />
            <mxPoint x="1120" y="500" as="targetPoint" />
          </mxGeometry>
        </mxCell>
        <mxCell id="joQVcLJBg0Bp2sJsYOWd-2" value="Информационная система университета" style="ellipse;whiteSpace=wrap;html=1;" vertex="1" parent="1">
          <mxGeometry x="1890" y="470" width="120" height="80" as="geometry" />
        </mxCell>
        <mxCell id="joQVcLJBg0Bp2sJsYOWd-8" style="edgeStyle=orthogonalEdgeStyle;rounded=0;orthogonalLoop=1;jettySize=auto;html=1;" edge="1" parent="1" source="joQVcLJBg0Bp2sJsYOWd-3">
          <mxGeometry relative="1" as="geometry">
            <mxPoint x="570" y="500" as="targetPoint" />
          </mxGeometry>
        </mxCell>
        <mxCell id="joQVcLJBg0Bp2sJsYOWd-3" value="Управление учебным процессом" style="rounded=0;whiteSpace=wrap;html=1;" vertex="1" parent="1">
          <mxGeometry x="510" y="120" width="120" height="50" as="geometry" />
        </mxCell>
        <mxCell id="joQVcLJBg0Bp2sJsYOWd-9" style="edgeStyle=orthogonalEdgeStyle;rounded=0;orthogonalLoop=1;jettySize=auto;html=1;" edge="1" parent="1" source="joQVcLJBg0Bp2sJsYOWd-6">
          <mxGeometry relative="1" as="geometry">
            <mxPoint x="570" y="330" as="targetPoint" />
          </mxGeometry>
        </mxCell>
        <mxCell id="joQVcLJBg0Bp2sJsYOWd-6" value="Управление студентами" style="rounded=0;whiteSpace=wrap;html=1;" vertex="1" parent="1">
          <mxGeometry x="640" y="300" width="120" height="60" as="geometry" />
        </mxCell>
        <mxCell id="joQVcLJBg0Bp2sJsYOWd-11" style="edgeStyle=orthogonalEdgeStyle;rounded=0;orthogonalLoop=1;jettySize=auto;html=1;" edge="1" parent="1" source="joQVcLJBg0Bp2sJsYOWd-10">
          <mxGeometry relative="1" as="geometry">
            <mxPoint x="570" y="390" as="targetPoint" />
            <Array as="points">
              <mxPoint x="570" y="390" />
            </Array>
          </mxGeometry>
        </mxCell>
        <mxCell id="joQVcLJBg0Bp2sJsYOWd-10" value="Управление группами" style="rounded=0;whiteSpace=wrap;html=1;" vertex="1" parent="1">
          <mxGeometry x="400" y="360" width="120" height="60" as="geometry" />
        </mxCell>
        <mxCell id="joQVcLJBg0Bp2sJsYOWd-13" style="edgeStyle=orthogonalEdgeStyle;rounded=0;orthogonalLoop=1;jettySize=auto;html=1;" edge="1" parent="1" source="joQVcLJBg0Bp2sJsYOWd-12">
          <mxGeometry relative="1" as="geometry">
            <mxPoint x="570" y="440" as="targetPoint" />
          </mxGeometry>
        </mxCell>
        <mxCell id="joQVcLJBg0Bp2sJsYOWd-12" value="Управление дисциплинами" style="rounded=0;whiteSpace=wrap;html=1;" vertex="1" parent="1">
          <mxGeometry x="640" y="410" width="120" height="60" as="geometry" />
        </mxCell>
        <mxCell id="joQVcLJBg0Bp2sJsYOWd-15" style="edgeStyle=orthogonalEdgeStyle;rounded=0;orthogonalLoop=1;jettySize=auto;html=1;" edge="1" parent="1" source="joQVcLJBg0Bp2sJsYOWd-14">
          <mxGeometry relative="1" as="geometry">
            <mxPoint x="570" y="290" as="targetPoint" />
            <Array as="points">
              <mxPoint x="430" y="290" />
              <mxPoint x="570" y="290" />
            </Array>
          </mxGeometry>
        </mxCell>
        <mxCell id="joQVcLJBg0Bp2sJsYOWd-14" value="Управление учебными планами" style="rounded=0;whiteSpace=wrap;html=1;" vertex="1" parent="1">
          <mxGeometry x="400" y="260" width="120" height="60" as="geometry" />
        </mxCell>
        <mxCell id="joQVcLJBg0Bp2sJsYOWd-38" style="edgeStyle=orthogonalEdgeStyle;rounded=0;orthogonalLoop=1;jettySize=auto;html=1;" edge="1" parent="1" source="joQVcLJBg0Bp2sJsYOWd-37">
          <mxGeometry relative="1" as="geometry">
            <mxPoint x="570" y="500" as="targetPoint" />
          </mxGeometry>
        </mxCell>
        <mxCell id="joQVcLJBg0Bp2sJsYOWd-37" value="Управление персоналом" style="rounded=0;whiteSpace=wrap;html=1;" vertex="1" parent="1">
          <mxGeometry x="510" y="680" width="120" height="60" as="geometry" />
        </mxCell>
        <mxCell id="joQVcLJBg0Bp2sJsYOWd-40" style="edgeStyle=orthogonalEdgeStyle;rounded=0;orthogonalLoop=1;jettySize=auto;html=1;" edge="1" parent="1" source="joQVcLJBg0Bp2sJsYOWd-39">
          <mxGeometry relative="1" as="geometry">
            <mxPoint x="570" y="590" as="targetPoint" />
            <Array as="points">
              <mxPoint x="570" y="585" />
            </Array>
          </mxGeometry>
        </mxCell>
        <mxCell id="joQVcLJBg0Bp2sJsYOWd-39" value="Кадровый учет" style="rounded=0;whiteSpace=wrap;html=1;" vertex="1" parent="1">
          <mxGeometry x="400" y="554" width="120" height="60" as="geometry" />
        </mxCell>
        <mxCell id="joQVcLJBg0Bp2sJsYOWd-45" style="edgeStyle=orthogonalEdgeStyle;rounded=0;orthogonalLoop=1;jettySize=auto;html=1;" edge="1" parent="1" source="joQVcLJBg0Bp2sJsYOWd-41">
          <mxGeometry relative="1" as="geometry">
            <mxPoint x="570" y="630" as="targetPoint" />
          </mxGeometry>
        </mxCell>
        <mxCell id="joQVcLJBg0Bp2sJsYOWd-41" value="Управление кадровым составом" style="rounded=0;whiteSpace=wrap;html=1;" vertex="1" parent="1">
          <mxGeometry x="640" y="600" width="120" height="60" as="geometry" />
        </mxCell>
        <mxCell id="joQVcLJBg0Bp2sJsYOWd-46" style="edgeStyle=orthogonalEdgeStyle;rounded=0;orthogonalLoop=1;jettySize=auto;html=1;" edge="1" parent="1" source="joQVcLJBg0Bp2sJsYOWd-42">
          <mxGeometry relative="1" as="geometry">
            <mxPoint x="570" y="540" as="targetPoint" />
            <Array as="points">
              <mxPoint x="767" y="540" />
              <mxPoint x="570" y="540" />
            </Array>
          </mxGeometry>
        </mxCell>
        <mxCell id="joQVcLJBg0Bp2sJsYOWd-42" value="Редактирование данных сотрудников" style="rounded=0;whiteSpace=wrap;html=1;" vertex="1" parent="1">
          <mxGeometry x="640" y="510" width="120" height="60" as="geometry" />
        </mxCell>
        <mxCell id="joQVcLJBg0Bp2sJsYOWd-44" style="edgeStyle=orthogonalEdgeStyle;rounded=0;orthogonalLoop=1;jettySize=auto;html=1;" edge="1" parent="1" source="joQVcLJBg0Bp2sJsYOWd-43">
          <mxGeometry relative="1" as="geometry">
            <mxPoint x="980" y="490" as="targetPoint" />
            <Array as="points">
              <mxPoint x="980" y="490" />
            </Array>
          </mxGeometry>
        </mxCell>
        <mxCell id="joQVcLJBg0Bp2sJsYOWd-43" value="Планирование и оптимизация расписания" style="rounded=0;whiteSpace=wrap;html=1;" vertex="1" parent="1">
          <mxGeometry x="920" y="710" width="120" height="60" as="geometry" />
        </mxCell>
        <mxCell id="joQVcLJBg0Bp2sJsYOWd-51" style="edgeStyle=orthogonalEdgeStyle;rounded=0;orthogonalLoop=1;jettySize=auto;html=1;" edge="1" parent="1" source="joQVcLJBg0Bp2sJsYOWd-47">
          <mxGeometry relative="1" as="geometry">
            <mxPoint x="979.9999999999995" y="650" as="targetPoint" />
          </mxGeometry>
        </mxCell>
        <mxCell id="joQVcLJBg0Bp2sJsYOWd-47" value="Составление расписания" style="rounded=0;whiteSpace=wrap;html=1;" vertex="1" parent="1">
          <mxGeometry x="780" y="620" width="120" height="60" as="geometry" />
        </mxCell>
        <mxCell id="joQVcLJBg0Bp2sJsYOWd-52" style="edgeStyle=orthogonalEdgeStyle;rounded=0;orthogonalLoop=1;jettySize=auto;html=1;" edge="1" parent="1" source="joQVcLJBg0Bp2sJsYOWd-48">
          <mxGeometry relative="1" as="geometry">
            <mxPoint x="989.9999999999995" y="650" as="targetPoint" />
          </mxGeometry>
        </mxCell>
        <mxCell id="joQVcLJBg0Bp2sJsYOWd-48" value="Оперативное управление расписанием" style="rounded=0;whiteSpace=wrap;html=1;" vertex="1" parent="1">
          <mxGeometry x="1060" y="620" width="120" height="60" as="geometry" />
        </mxCell>
        <mxCell id="joQVcLJBg0Bp2sJsYOWd-53" style="edgeStyle=orthogonalEdgeStyle;rounded=0;orthogonalLoop=1;jettySize=auto;html=1;" edge="1" parent="1" source="joQVcLJBg0Bp2sJsYOWd-49">
          <mxGeometry relative="1" as="geometry">
            <mxPoint x="979.9999999999995" y="560" as="targetPoint" />
          </mxGeometry>
        </mxCell>
        <mxCell id="joQVcLJBg0Bp2sJsYOWd-49" value="Управление аудиторным фондом" style="rounded=0;whiteSpace=wrap;html=1;" vertex="1" parent="1">
          <mxGeometry x="780" y="530" width="120" height="60" as="geometry" />
        </mxCell>
        <mxCell id="joQVcLJBg0Bp2sJsYOWd-54" style="edgeStyle=orthogonalEdgeStyle;rounded=0;orthogonalLoop=1;jettySize=auto;html=1;" edge="1" parent="1" source="joQVcLJBg0Bp2sJsYOWd-50">
          <mxGeometry relative="1" as="geometry">
            <mxPoint x="980" y="560" as="targetPoint" />
          </mxGeometry>
        </mxCell>
        <mxCell id="joQVcLJBg0Bp2sJsYOWd-50" value="Публикация расписания" style="rounded=0;whiteSpace=wrap;html=1;" vertex="1" parent="1">
          <mxGeometry x="1060" y="530" width="120" height="60" as="geometry" />
        </mxCell>
        <mxCell id="joQVcLJBg0Bp2sJsYOWd-56" style="edgeStyle=orthogonalEdgeStyle;rounded=0;orthogonalLoop=1;jettySize=auto;html=1;" edge="1" parent="1" source="joQVcLJBg0Bp2sJsYOWd-55">
          <mxGeometry relative="1" as="geometry">
            <mxPoint x="979.9999999999995" y="500" as="targetPoint" />
          </mxGeometry>
        </mxCell>
        <mxCell id="joQVcLJBg0Bp2sJsYOWd-55" value="Управление успеваемостью" style="rounded=0;whiteSpace=wrap;html=1;" vertex="1" parent="1">
          <mxGeometry x="920" y="120" width="120" height="60" as="geometry" />
        </mxCell>
        <mxCell id="joQVcLJBg0Bp2sJsYOWd-60" style="edgeStyle=orthogonalEdgeStyle;rounded=0;orthogonalLoop=1;jettySize=auto;html=1;" edge="1" parent="1" source="joQVcLJBg0Bp2sJsYOWd-57">
          <mxGeometry relative="1" as="geometry">
            <mxPoint x="979.9999999999995" y="260" as="targetPoint" />
          </mxGeometry>
        </mxCell>
        <mxCell id="joQVcLJBg0Bp2sJsYOWd-57" value="Введение электронных ведомостей" style="rounded=0;whiteSpace=wrap;html=1;" vertex="1" parent="1">
          <mxGeometry x="780" y="230" width="120" height="60" as="geometry" />
        </mxCell>
        <mxCell id="joQVcLJBg0Bp2sJsYOWd-61" style="edgeStyle=orthogonalEdgeStyle;rounded=0;orthogonalLoop=1;jettySize=auto;html=1;" edge="1" parent="1" source="joQVcLJBg0Bp2sJsYOWd-58">
          <mxGeometry relative="1" as="geometry">
            <mxPoint x="979.9999999999995" y="290" as="targetPoint" />
          </mxGeometry>
        </mxCell>
        <mxCell id="joQVcLJBg0Bp2sJsYOWd-58" value="Управление элективными курсами" style="rounded=0;whiteSpace=wrap;html=1;" vertex="1" parent="1">
          <mxGeometry x="1080" y="260" width="120" height="60" as="geometry" />
        </mxCell>
        <mxCell id="joQVcLJBg0Bp2sJsYOWd-62" style="edgeStyle=orthogonalEdgeStyle;rounded=0;orthogonalLoop=1;jettySize=auto;html=1;" edge="1" parent="1" source="joQVcLJBg0Bp2sJsYOWd-59">
          <mxGeometry relative="1" as="geometry">
            <mxPoint x="979.9999999999995" y="380" as="targetPoint" />
          </mxGeometry>
        </mxCell>
        <mxCell id="joQVcLJBg0Bp2sJsYOWd-59" value="Мониторинг академического прогресса" style="rounded=0;whiteSpace=wrap;html=1;" vertex="1" parent="1">
          <mxGeometry x="780" y="350" width="120" height="60" as="geometry" />
        </mxCell>
        <mxCell id="joQVcLJBg0Bp2sJsYOWd-74" style="edgeStyle=orthogonalEdgeStyle;rounded=0;orthogonalLoop=1;jettySize=auto;html=1;" edge="1" parent="1" source="joQVcLJBg0Bp2sJsYOWd-63">
          <mxGeometry relative="1" as="geometry">
            <mxPoint x="1389.9999999999995" y="510" as="targetPoint" />
          </mxGeometry>
        </mxCell>
        <mxCell id="joQVcLJBg0Bp2sJsYOWd-63" value="Административное-организационное управление" style="rounded=0;whiteSpace=wrap;html=1;" vertex="1" parent="1">
          <mxGeometry x="1330" y="140" width="120" height="60" as="geometry" />
        </mxCell>
        <mxCell id="joQVcLJBg0Bp2sJsYOWd-84" style="edgeStyle=orthogonalEdgeStyle;rounded=0;orthogonalLoop=1;jettySize=auto;html=1;" edge="1" parent="1" source="joQVcLJBg0Bp2sJsYOWd-64">
          <mxGeometry relative="1" as="geometry">
            <mxPoint x="1389.9999999999995" y="280" as="targetPoint" />
          </mxGeometry>
        </mxCell>
        <mxCell id="joQVcLJBg0Bp2sJsYOWd-64" value="Документооборот&amp;nbsp;" style="rounded=0;whiteSpace=wrap;html=1;" vertex="1" parent="1">
          <mxGeometry x="1220" y="250" width="120" height="60" as="geometry" />
        </mxCell>
        <mxCell id="joQVcLJBg0Bp2sJsYOWd-83" style="edgeStyle=orthogonalEdgeStyle;rounded=0;orthogonalLoop=1;jettySize=auto;html=1;" edge="1" parent="1" source="joQVcLJBg0Bp2sJsYOWd-65">
          <mxGeometry relative="1" as="geometry">
            <mxPoint x="1389.9999999999995" y="290" as="targetPoint" />
          </mxGeometry>
        </mxCell>
        <mxCell id="joQVcLJBg0Bp2sJsYOWd-65" value="Информирование участников процесса" style="rounded=0;whiteSpace=wrap;html=1;" vertex="1" parent="1">
          <mxGeometry x="1460" y="260" width="120" height="60" as="geometry" />
        </mxCell>
        <mxCell id="joQVcLJBg0Bp2sJsYOWd-82" style="edgeStyle=orthogonalEdgeStyle;rounded=0;orthogonalLoop=1;jettySize=auto;html=1;" edge="1" parent="1" source="joQVcLJBg0Bp2sJsYOWd-66">
          <mxGeometry relative="1" as="geometry">
            <mxPoint x="1389.9999999999995" y="420" as="targetPoint" />
          </mxGeometry>
        </mxCell>
        <mxCell id="joQVcLJBg0Bp2sJsYOWd-66" value="Коммуникационная платформа" style="rounded=0;whiteSpace=wrap;html=1;" vertex="1" parent="1">
          <mxGeometry x="1230" y="390" width="120" height="60" as="geometry" />
        </mxCell>
        <mxCell id="joQVcLJBg0Bp2sJsYOWd-75" style="edgeStyle=orthogonalEdgeStyle;rounded=0;orthogonalLoop=1;jettySize=auto;html=1;" edge="1" parent="1" source="joQVcLJBg0Bp2sJsYOWd-67">
          <mxGeometry relative="1" as="geometry">
            <mxPoint x="1389.9999999999995" y="510" as="targetPoint" />
          </mxGeometry>
        </mxCell>
        <mxCell id="joQVcLJBg0Bp2sJsYOWd-67" value="Аналитика и отчетность" style="rounded=0;whiteSpace=wrap;html=1;" vertex="1" parent="1">
          <mxGeometry x="1330" y="730" width="120" height="60" as="geometry" />
        </mxCell>
        <mxCell id="joQVcLJBg0Bp2sJsYOWd-81" style="edgeStyle=orthogonalEdgeStyle;rounded=0;orthogonalLoop=1;jettySize=auto;html=1;" edge="1" parent="1" source="joQVcLJBg0Bp2sJsYOWd-68">
          <mxGeometry relative="1" as="geometry">
            <mxPoint x="1389.9999999999995" y="670" as="targetPoint" />
          </mxGeometry>
        </mxCell>
        <mxCell id="joQVcLJBg0Bp2sJsYOWd-68" value="Мониторинг KPI" style="rounded=0;whiteSpace=wrap;html=1;" vertex="1" parent="1">
          <mxGeometry x="1220" y="640" width="120" height="60" as="geometry" />
        </mxCell>
        <mxCell id="joQVcLJBg0Bp2sJsYOWd-80" style="edgeStyle=orthogonalEdgeStyle;rounded=0;orthogonalLoop=1;jettySize=auto;html=1;" edge="1" parent="1" source="joQVcLJBg0Bp2sJsYOWd-69">
          <mxGeometry relative="1" as="geometry">
            <mxPoint x="1389.9999999999995" y="670" as="targetPoint" />
          </mxGeometry>
        </mxCell>
        <mxCell id="joQVcLJBg0Bp2sJsYOWd-69" value="Отчетность" style="rounded=0;whiteSpace=wrap;html=1;" vertex="1" parent="1">
          <mxGeometry x="1450" y="640" width="120" height="60" as="geometry" />
        </mxCell>
        <mxCell id="joQVcLJBg0Bp2sJsYOWd-76" style="edgeStyle=orthogonalEdgeStyle;rounded=0;orthogonalLoop=1;jettySize=auto;html=1;" edge="1" parent="1" source="joQVcLJBg0Bp2sJsYOWd-70">
          <mxGeometry relative="1" as="geometry">
            <mxPoint x="1810" y="510" as="targetPoint" />
          </mxGeometry>
        </mxCell>
        <mxCell id="joQVcLJBg0Bp2sJsYOWd-70" value="Интеграции и системные функции" style="rounded=0;whiteSpace=wrap;html=1;" vertex="1" parent="1">
          <mxGeometry x="1750" y="140" width="120" height="60" as="geometry" />
        </mxCell>
        <mxCell id="joQVcLJBg0Bp2sJsYOWd-77" style="edgeStyle=orthogonalEdgeStyle;rounded=0;orthogonalLoop=1;jettySize=auto;html=1;" edge="1" parent="1" source="joQVcLJBg0Bp2sJsYOWd-71">
          <mxGeometry relative="1" as="geometry">
            <mxPoint x="1810" y="280" as="targetPoint" />
          </mxGeometry>
        </mxCell>
        <mxCell id="joQVcLJBg0Bp2sJsYOWd-71" value="Системные уведомления" style="rounded=0;whiteSpace=wrap;html=1;" vertex="1" parent="1">
          <mxGeometry x="1600" y="250" width="120" height="60" as="geometry" />
        </mxCell>
        <mxCell id="joQVcLJBg0Bp2sJsYOWd-78" style="edgeStyle=orthogonalEdgeStyle;rounded=0;orthogonalLoop=1;jettySize=auto;html=1;" edge="1" parent="1" source="joQVcLJBg0Bp2sJsYOWd-72">
          <mxGeometry relative="1" as="geometry">
            <mxPoint x="1810" y="280" as="targetPoint" />
          </mxGeometry>
        </mxCell>
        <mxCell id="joQVcLJBg0Bp2sJsYOWd-72" value="Резервное копирование" style="rounded=0;whiteSpace=wrap;html=1;" vertex="1" parent="1">
          <mxGeometry x="1920" y="250" width="120" height="60" as="geometry" />
        </mxCell>
        <mxCell id="joQVcLJBg0Bp2sJsYOWd-79" style="edgeStyle=orthogonalEdgeStyle;rounded=0;orthogonalLoop=1;jettySize=auto;html=1;" edge="1" parent="1" source="joQVcLJBg0Bp2sJsYOWd-73">
          <mxGeometry relative="1" as="geometry">
            <mxPoint x="1810" y="410" as="targetPoint" />
          </mxGeometry>
        </mxCell>
        <mxCell id="joQVcLJBg0Bp2sJsYOWd-73" value="Управление доступом" style="rounded=0;whiteSpace=wrap;html=1;" vertex="1" parent="1">
          <mxGeometry x="1600" y="380" width="120" height="60" as="geometry" />
        </mxCell>
      </root>
    </mxGraphModel>
  </diagram>
</mxfile>
